<?xml version="1.0" standalone="no"?><!DOCTYPE svg PUBLIC "-//W3C//DTD SVG 1.1//EN" "http://www.w3.org/Graphics/SVG/1.1/DTD/svg11.dtd"><svg t="1576693862350" class="icon" viewBox="0 0 1024 1024" version="1.1" xmlns="http://www.w3.org/2000/svg" p-id="1212" width="128" height="128" xmlns:xlink="http://www.w3.org/1999/xlink"><defs><style type="text/css"></style></defs><path d="M534.528 349.141333a89.301333 89.301333 0 0 0 89.429333-89.173333A89.386667 89.386667 0 0 0 534.528 170.666667a89.301333 89.301333 0 0 0-89.429333 89.173333c0 49.322667 40.021333 89.301333 89.429333 89.301333z m0-132.821333c24.106667 0 43.690667 19.541333 43.690667 43.52a43.648 43.648 0 0 1-87.338667 0c0-23.978667 19.584-43.52 43.648-43.52z m-154.197333 396.544a89.514667 89.514667 0 0 0-122.24-32.682667 89.045333 89.045333 0 0 0-32.725334 121.898667 89.514667 89.514667 0 0 0 122.24 32.64 89.173333 89.173333 0 0 0 32.725334-121.856z m-55.594667 82.346667a43.434667 43.434667 0 0 1-43.477333 0.170666 43.605333 43.605333 0 1 1 43.178666-75.818666 43.605333 43.605333 0 0 1 0.298667 75.648z m483.84-113.664a89.472 89.472 0 0 0-122.24 32.64 89.045333 89.045333 0 0 0 32.768 121.898666 89.472 89.472 0 0 0 122.24-32.64 89.173333 89.173333 0 0 0-32.725333-121.898666z m-6.826667 99.114666a44.288 44.288 0 0 1-37.973333 21.802667 43.648 43.648 0 1 1 21.888-81.322667c20.949333 11.946667 28.117333 38.698667 16.085333 59.52zM646.4 306.133333a242.432 242.432 0 0 1 130.56 231.637334 22.826667 22.826667 0 0 0 21.418667 24.234666l1.493333 0.085334c11.946667 0 22.016-9.258667 22.784-21.333334a287.530667 287.530667 0 0 0-42.538667-170.709333 290.218667 290.218667 0 0 0-112.512-104.32 22.912 22.912 0 0 0-30.890666 9.685333 22.613333 22.613333 0 0 0 9.685333 30.72zM267.605333 560.64c0.426667 0 0.938667 0 1.365334-0.085333a22.869333 22.869333 0 0 0 21.504-24.106667A242.346667 242.346667 0 0 1 422.528 305.493333a22.784 22.784 0 1 0-20.949333-40.533333 290.389333 290.389333 0 0 0-113.664 104.362667 287.701333 287.701333 0 0 0-43.093334 169.813333 22.912 22.912 0 0 0 22.784 21.461333z m395.690667 167.210667a243.2 243.2 0 0 1-129.536 37.12c-46.506667 0-91.733333-13.098667-130.773333-37.845334a22.784 22.784 0 1 0-24.576 38.528A289.322667 289.322667 0 0 0 533.717333 810.666667c54.613333 0 107.818667-15.274667 153.856-44.16a22.826667 22.826667 0 1 0-24.32-38.741334z" fill="#1890ff" p-id="1213"></path></svg>